<?xml version="1.0" standalone="no"?>
<!DOCTYPE svg PUBLIC "-//W3C//DTD SVG 20010904//EN"
 "http://www.w3.org/TR/2001/REC-SVG-20010904/DTD/svg10.dtd">
<svg version="1.0" xmlns="http://www.w3.org/2000/svg"
 width="567.000000pt" height="198.000000pt" viewBox="0 0 567.000000 198.000000"
 preserveAspectRatio="xMidYMid meet">

<g transform="translate(0.000000,198.000000) scale(0.100000,-0.100000)"
fill="#000000" stroke="none">
<path d="M1850 1358 c0 -7 9 -36 19 -64 33 -85 54 -221 47 -299 -23 -279 -208
-485 -586 -651 -103 -46 -76 -43 47 5 451 176 796 472 939 806 44 104 54 128
52 130 -2 1 -48 9 -103 19 -55 9 -131 23 -170 31 -79 15 -208 35 -230 35 -8 0
-15 -6 -15 -12z"/>
<path d="M5064 1100 c-22 -9 -64 -58 -93 -109 -9 -16 -28 -46 -43 -68 -22 -31
-26 -44 -20 -67 5 -18 2 -60 -7 -106 -16 -88 -5 -128 41 -144 31 -11 99 11
144 47 l28 21 -25 6 c-38 9 -50 45 -39 120 6 44 15 68 26 75 50 29 84 85 52
85 -36 1 -41 16 -23 69 24 74 13 93 -41 71z"/>
<path d="M2647 1026 c-10 -25 17 -38 55 -27 27 8 29 9 9 10 -14 1 -32 8 -41
16 -15 14 -18 14 -23 1z"/>
<path d="M2785 1025 l-50 -13 38 -1 c25 -1 40 -7 44 -18 7 -19 -8 -101 -42
-216 -25 -89 -26 -107 0 -58 14 28 85 287 85 311 0 12 -12 11 -75 -5z"/>
<path d="M5359 956 c-48 -17 -86 -45 -136 -99 -56 -60 -83 -117 -83 -171 0
-36 5 -48 26 -65 15 -12 35 -21 44 -21 23 0 88 28 122 52 28 20 48 17 48 -6 0
-7 9 -21 19 -30 19 -17 22 -17 65 -1 25 10 51 24 58 32 14 17 12 191 -3 209
-5 6 -8 20 -8 30 4 40 -2 52 -35 68 -40 19 -68 20 -117 2z m2 -78 c7 -105 3
-131 -19 -146 -54 -35 -69 47 -22 123 22 36 39 45 41 23z"/>
<path d="M4026 881 c-23 -43 -46 -148 -46 -208 0 -40 4 -55 18 -62 26 -14 48
2 27 19 -21 17 -19 96 4 195 11 44 18 81 16 83 -2 2 -11 -10 -19 -27z"/>
<path d="M4400 881 c-6 -17 -9 -34 -6 -39 3 -5 -1 -32 -9 -58 -14 -49 -14 -49
5 -26 22 26 40 83 40 125 0 35 -14 35 -30 -2z"/>
<path d="M3086 873 c-28 -56 -66 -175 -66 -208 0 -38 23 -67 46 -58 13 5 13 8
-2 24 -25 28 -20 92 15 187 31 82 34 106 7 55z"/>
<path d="M3657 871 c-28 -47 -68 -202 -74 -286 -5 -66 -3 -83 10 -94 22 -18
40 -5 27 19 -22 40 -4 183 39 320 11 35 19 65 18 67 -2 1 -10 -10 -20 -26z"/>
<path d="M4577 863 c-23 -45 -57 -162 -57 -198 0 -38 23 -67 45 -59 19 8 19
18 0 34 -21 18 -19 65 9 161 26 89 27 109 3 62z"/>
<path d="M3833 868 c-4 -7 -8 -40 -8 -73 0 -33 -4 -71 -9 -84 -13 -37 13 -15
30 25 25 60 14 173 -13 132z"/>
<path d="M4136 847 c-5 -21 -6 -41 -2 -44 12 -12 17 5 14 43 l-4 39 -8 -38z"/>
<path d="M4235 788 c-33 -71 -33 -131 0 -163 25 -26 62 -31 100 -15 18 8 17 9
-7 9 -14 1 -40 13 -57 27 -26 21 -31 33 -31 69 0 23 7 61 15 84 20 57 9 51
-20 -11z"/>
<path d="M4734 758 c-19 -24 -20 -33 -11 -72 12 -55 46 -91 76 -81 20 6 20 7
-7 30 -23 19 -28 33 -32 86 l-5 64 -21 -27z"/>
<path d="M2318 739 c-16 -16 -35 -29 -42 -29 -7 0 -39 -20 -71 -45 -144 -112
-349 -217 -588 -301 -158 -55 -168 -64 -45 -39 136 27 283 55 343 64 61 9 202
33 420 71 66 12 172 30 235 40 63 11 153 26 200 34 47 8 117 20 155 27 101 17
108 25 39 39 -32 6 -76 18 -97 26 -29 11 -43 12 -59 3 -26 -14 -103 -5 -135
16 -28 18 -56 72 -49 91 3 8 1 14 -5 14 -6 0 -13 -9 -16 -20 -8 -29 -11 -29
-202 24 l-54 15 -29 -30z"/>
<path d="M3222 736 c-40 -58 -17 -149 32 -130 15 6 15 8 -3 26 -24 21 -26 50
-10 97 15 44 8 46 -19 7z"/>
<path d="M3414 729 c-18 -18 -20 -26 -12 -67 6 -26 12 -57 14 -69 6 -31 47
-57 75 -48 22 7 22 7 -4 23 -38 23 -52 58 -51 124 1 32 1 58 0 58 -1 0 -11 -9
-22 -21z"/>
<path d="M3723 634 c-11 -29 37 -43 82 -24 18 8 18 9 2 9 -10 1 -31 8 -48 16
-27 14 -30 14 -36 -1z"/>
</g>
</svg>
